<svg width="109" height="109" viewBox="0 0 109 109" fill="none" xmlns="http://www.w3.org/2000/svg">
<path opacity="0.8" fill-rule="evenodd" clip-rule="evenodd" d="M63.5834 99.9166H45.4167C28.2901 99.9166 19.7245 99.9166 14.4062 94.5938C9.08792 89.2709 9.08337 80.7099 9.08337 63.5833V45.4166C9.08337 28.29 9.08337 19.7244 14.4062 14.4061C19.729 9.08779 28.3355 9.08325 45.553 9.08325C48.3052 9.08325 50.5079 9.08325 52.3655 9.16046C52.3049 9.52379 52.2746 9.89318 52.2746 10.2686L52.2292 23.1397C52.2292 28.1219 52.2292 32.5273 52.7061 36.0744C53.2238 39.9212 54.4092 43.768 57.552 46.9108C60.6858 50.0445 64.5371 51.2345 68.3839 51.7522C71.931 52.2291 76.3364 52.2291 81.3186 52.2291H99.7214C99.9167 54.6543 99.9167 57.6337 99.9167 61.5985V63.5833C99.9167 80.7099 99.9167 89.2755 94.5939 94.5938C89.271 99.912 80.71 99.9166 63.5834 99.9166Z" fill="#F46030" fill-opacity="0.8"/>
<path d="M40.382 90.8454C41.2605 91.0261 40.8128 91.7664 42.9266 90.3638C45.0403 88.9611 50.4856 86.812 54.6622 86.812C58.8389 86.812 64.474 89.0788 66.3979 90.3638C68.3218 91.6488 67.1887 90.7954 67.6298 90.8865C68.071 90.9775 68.5258 90.9802 68.968 90.8943C69.4102 90.8084 69.831 90.6356 70.206 90.386C70.5809 90.1363 70.9027 89.8148 71.1526 89.44C71.4024 89.0652 71.5755 88.6445 71.6617 88.2024C71.7479 87.7603 71.7455 87.3054 71.6548 86.8642C71.564 86.423 71.3866 86.0041 71.1329 85.6319C70.8791 85.2597 72.6627 86.3496 70.1766 84.6958C67.6904 83.0419 60.1837 80 54.6622 80C49.1407 80 41.8157 82.912 39.1479 84.6958C36.4801 86.4796 37.8957 85.9789 37.7247 86.8594C37.5536 87.7398 37.7367 88.6522 38.2342 89.3985C38.7317 90.1447 39.5035 90.6647 40.382 90.8454Z" fill="black"/>
<path d="M36.3333 65.8542C36.3333 69.6147 34.2987 72.6667 31.7917 72.6667C29.2847 72.6667 27.25 69.6147 27.25 65.8542C27.25 62.0937 29.2847 59.0417 31.7917 59.0417C34.2987 59.0417 36.3333 62.0937 36.3333 65.8542ZM81.75 65.8542C81.75 69.6147 79.7153 72.6667 77.2083 72.6667C74.7013 72.6667 72.6667 69.6147 72.6667 65.8542C72.6667 62.0937 74.7013 59.0417 77.2083 59.0417C79.7153 59.0417 81.75 62.0937 81.75 65.8542ZM52.2746 10.2642C52.2907 10.7165 52.2292 18.1576 52.2292 23.1398C52.2292 28.122 52.2087 32.3753 52.706 36.0745C53.2034 39.7737 54.4137 43.768 57.552 46.9063C60.6903 50.0446 64.687 51.255 68.3839 51.7523C72.0808 52.2496 76.3363 52.2292 81.3185 52.2292C86.3008 52.2292 99.6608 51.5267 99.7214 52.2292C99.7819 52.9316 99.8243 53.6886 99.8485 54.5C99.8728 55.3115 99.9167 55.7172 99.9167 54.5C99.9167 53.2828 100.066 54.4739 99.8712 51.9567C99.6761 49.4395 96.9852 42.0198 95.5203 39.9621C94.0554 37.9044 96.3151 40.8409 94.226 38.3408C92.1368 35.8406 85.6558 28.4672 81.75 24.9792C77.8442 21.4912 72.7144 17.8942 68.6246 15.1646C64.5348 12.4351 62.0376 11.0425 60.3633 10.4413C58.689 9.8401 59.3252 10.0572 58.0652 9.74188C56.8052 9.42653 54.6226 9.16055 52.2292 9.10605C49.8357 9.05155 52.2584 9.81184 52.2746 10.2642Z" fill="black"/>
</svg>
