<svg width="109" height="109" viewBox="0 0 109 109" fill="none" xmlns="http://www.w3.org/2000/svg">
<path opacity="0.8" fill-rule="evenodd" clip-rule="evenodd" d="M63.5834 99.9166H45.4167C28.2901 99.9166 19.7245 99.9166 14.4062 94.5938C9.08792 89.2709 9.08337 80.7099 9.08337 63.5833V45.4166C9.08337 28.29 9.08337 19.7244 14.4062 14.4061C19.729 9.08779 28.3355 9.08325 45.553 9.08325C48.3052 9.08325 50.5079 9.08325 52.3655 9.16046C52.3049 9.52379 52.2746 9.89318 52.2746 10.2686L52.2292 23.1397C52.2292 28.1219 52.2292 32.5273 52.7061 36.0744C53.2238 39.9212 54.4092 43.768 57.552 46.9108C60.6858 50.0445 64.5371 51.2345 68.3839 51.7522C71.931 52.2291 76.3364 52.2291 81.3186 52.2291H99.7214C99.9167 54.6543 99.9167 57.6337 99.9167 61.5985V63.5833C99.9167 80.7099 99.9167 89.2755 94.5939 94.5938C89.271 99.912 80.71 99.9166 63.5834 99.9166Z" fill="#FAC215"/>
<path d="M36.3333 65.8541C36.3333 69.6146 34.2987 72.6666 31.7917 72.6666C29.2847 72.6666 27.25 69.6146 27.25 65.8541C27.25 62.0936 29.2847 59.0416 31.7917 59.0416C34.2987 59.0416 36.3333 62.0936 36.3333 65.8541ZM42.7643 76.6451C42.0126 76.1558 41.0983 75.9827 40.2198 76.1635C39.3413 76.3442 38.5695 76.8641 38.072 77.6104C37.5745 78.3567 37.3914 79.2691 37.5624 80.1495C37.7335 81.03 38.2449 81.8074 38.9857 82.3131C43.5804 85.375 48.9785 87.0089 54.5 87.0089C60.0215 87.0089 65.4196 85.375 70.0143 82.3131C70.3919 82.0673 70.7169 81.7492 70.9706 81.377C71.2244 81.0048 71.4018 80.5859 71.4925 80.1447C71.5833 79.7035 71.5857 79.2486 71.4995 78.8065C71.4133 78.3643 71.2402 77.9437 70.9903 77.5689C70.7405 77.1941 70.4187 76.8725 70.0437 76.6229C69.6688 76.3733 69.248 76.2005 68.8058 76.1146C68.3636 76.0287 67.9088 76.0313 67.4676 76.1224C67.0264 76.2134 66.6077 76.3911 66.2357 76.6451C62.7599 78.9611 58.6767 80.1969 54.5 80.1969C50.3233 80.1969 46.2401 78.9611 42.7643 76.6451ZM81.75 65.8541C81.75 69.6146 79.7153 72.6666 77.2083 72.6666C74.7013 72.6666 72.6667 69.6146 72.6667 65.8541C72.6667 62.0936 74.7013 59.0416 77.2083 59.0416C79.7153 59.0416 81.75 62.0936 81.75 65.8541ZM52.2746 10.2641L52.2292 23.1397C52.2292 28.1219 52.2292 32.5228 52.706 36.0744C53.2238 39.9212 54.4092 43.768 57.552 46.9062C60.6857 50.0445 64.5371 51.2345 68.3839 51.7522C71.9309 52.2291 76.3363 52.2291 81.3185 52.2291H99.7214C99.7819 52.9315 99.8243 53.6885 99.8485 54.4999H99.9167C99.9167 53.2828 99.9167 52.6742 99.8712 51.9566C99.5263 47.6398 98.0232 43.496 95.5203 39.962C95.0934 39.3807 94.8027 39.0355 94.226 38.3407C90.6244 34.0352 85.8829 28.6669 81.75 24.9791C78.0712 21.6909 73.0255 18.0985 68.6246 15.1645C64.8459 12.6394 62.9566 11.3768 60.3633 10.4412C59.6079 10.1744 58.8411 9.94104 58.0652 9.74179C56.3212 9.31033 54.6226 9.16046 52.2292 9.10596L52.2746 10.2641Z" fill="black"/>
</svg>
